<?xml version="1.0" encoding="UTF-8"?>
<svg version="1.1" xmlns="http://www.w3.org/2000/svg" width="556" height="139">
<path d="M0 0 C183.48 0 366.96 0 556 0 C556 45.87 556 91.74 556 139 C372.52 139 189.04 139 0 139 C0 93.13 0 47.26 0 0 Z " fill="#FDFCFC" transform="translate(0,0)"/>
<path d="M0 0 C10.33149507 7.53207417 17.11941435 16.99118545 20.69140625 29.40234375 C22.69813829 46.29445525 20.36728065 60.4949891 10.21875 74.44921875 C1.55212279 84.90955364 -10.59091949 91.27350895 -24 93 C-36.02570783 93.94383093 -46.90487316 91.69330814 -57 85 C-57.73863281 84.53078125 -58.47726563 84.0615625 -59.23828125 83.578125 C-70.05172724 76.0329917 -76.98272747 63.96285615 -79.57421875 51.1640625 C-81.01194142 40.48006833 -80.84235479 30.74218561 -76 21 C-75.51402344 20.00226562 -75.02804688 19.00453125 -74.52734375 17.9765625 C-67.624464 5.01938397 -56.64196053 -3.45540546 -42.6875 -7.875 C-27.23605327 -11.60542071 -13.1029709 -8.53936238 0 0 Z " fill="#FBB815" transform="translate(88,17)"/>
<path d="M0 0 C1.88915687 1.19511178 3.61912187 2.41319701 5.3046875 3.87890625 C5.3046875 2.55890625 5.3046875 1.23890625 5.3046875 -0.12109375 C9.9246875 -0.12109375 14.5446875 -0.12109375 19.3046875 -0.12109375 C19.40384185 7.28039681 19.47629289 14.68149747 19.52441406 22.08349609 C19.54448266 24.59951516 19.5717438 27.11548786 19.60644531 29.63134766 C19.65517062 33.25565053 19.67770472 36.87933466 19.6953125 40.50390625 C19.71595764 41.62192627 19.73660278 42.73994629 19.75787354 43.8918457 C19.76004391 51.51015884 18.83569793 57.17634875 13.375 62.90234375 C12.73304688 63.34835938 12.09109375 63.794375 11.4296875 64.25390625 C10.47449219 64.94613281 10.47449219 64.94613281 9.5 65.65234375 C3.88925266 68.78717411 -1.29231112 69.24342545 -7.5703125 69.25390625 C-8.33472656 69.27839844 -9.09914063 69.30289063 -9.88671875 69.328125 C-16.57727101 69.36220252 -21.74697888 67.53072814 -26.75390625 63.02734375 C-27.20894531 62.44210938 -27.66398437 61.856875 -28.1328125 61.25390625 C-28.60589844 60.66351563 -29.07898438 60.073125 -29.56640625 59.46484375 C-32.16515272 55.81400961 -31.6953125 55.14030424 -31.6953125 49.87890625 C-27.4053125 49.87890625 -23.1153125 49.87890625 -18.6953125 49.87890625 C-18.0353125 51.52890625 -17.3753125 53.17890625 -16.6953125 54.87890625 C-13.16295158 57.23381353 -11.44810882 57.2063433 -7.2578125 57.25390625 C-6.12472656 57.28226563 -4.99164062 57.310625 -3.82421875 57.33984375 C-0.08715597 56.78931515 1.00588424 55.80267967 3.3046875 52.87890625 C4.44821666 50.59184794 4.40803189 49.28625863 4.3671875 46.75390625 C4.3465625 45.47515625 4.3259375 44.19640625 4.3046875 42.87890625 C3.4075 43.59046875 3.4075 43.59046875 2.4921875 44.31640625 C-2.83648805 48.12260307 -9.4294196 47.29511894 -15.6953125 46.87890625 C-21.59524277 45.5689567 -25.58579391 42.05007799 -28.890625 37.08203125 C-32.89928348 29.62536583 -33.15196299 20.46416965 -31.03515625 12.34765625 C-25.75251432 0.45599477 -12.1118124 -5.03781183 0 0 Z " fill="#282425" transform="translate(528.6953125,44.12109375)"/>
<path d="M0 0 C4.62 0 9.24 0 14 0 C14 7.26 14 14.52 14 22 C16.31 20.35 18.62 18.7 21 17 C26.68021484 15.10659505 32.74101669 15.07868093 38.25 17.5625 C43.44849463 20.51953844 47.90266885 25.36282939 50 31 C50.9257398 40.92003284 51.40512665 50.7672325 45 59 C41.24453219 63.11921731 36.92794128 65.6674757 31.3515625 66.30078125 C25.47122745 66.3260549 21.12239342 66.00662223 16 63 C15.505 61.515 15.505 61.515 15 60 C14.34 60 13.68 60 13 60 C13 61.65 13 63.3 13 65 C8.71 65 4.42 65 0 65 C0 43.55 0 22.1 0 0 Z " fill="#292526" transform="translate(357,26)"/>
<path d="M0 0 C4.29 0 8.58 0 13 0 C13.33 1.98 13.66 3.96 14 6 C14.78375 5.195625 15.5675 4.39125 16.375 3.5625 C20.30318964 -0.27216131 22.3936811 -0.18191013 27.8125 -0.25 C29.64748047 -0.28867187 29.64748047 -0.28867187 31.51953125 -0.328125 C35.23570873 0.0222217 36.99642717 0.86757018 40 3 C41.32608822 3.68096422 42.65686601 4.35330586 44 5 C44.680625 4.175 45.36125 3.35 46.0625 2.5 C50.53074394 -1.22175927 55.79477981 -0.73877558 61.34765625 -0.55859375 C66.43357901 0.21925326 69.71435462 2.053605 73 6 C75.68711307 9.9005497 75.25316532 14.16035191 75.1953125 18.703125 C75.1924826 19.54091492 75.18965271 20.37870483 75.18673706 21.24188232 C75.17556349 23.91140163 75.15046421 26.5805825 75.125 29.25 C75.11496654 31.06249515 75.10584133 32.87499556 75.09765625 34.6875 C75.0756334 39.12512993 75.04112304 43.56250763 75 48 C70.38 48 65.76 48 61 48 C60.67 36.12 60.34 24.24 60 12 C57.41679994 11.13893331 55.66678376 10.78346381 53 10.6875 C51.9790625 10.63142578 51.9790625 10.63142578 50.9375 10.57421875 C48.87513284 10.84850339 48.87513284 10.84850339 47.41088867 12.55102539 C45.50659223 15.85644113 45.52214357 18.8935386 45.48828125 22.609375 C45.47033005 23.33618469 45.45237885 24.06299438 45.43388367 24.81182861 C45.37986759 27.12449407 45.3459144 29.43695421 45.3125 31.75 C45.27931907 33.3216431 45.24482868 34.89325914 45.20898438 36.46484375 C45.12414672 40.30974746 45.05729494 44.15459122 45 48 C40.38 48 35.76 48 31 48 C30.67 36.12 30.34 24.24 30 12 C27.2642373 11.0880791 25.34374032 10.77755178 22.5 10.6875 C21.33984375 10.63142578 21.33984375 10.63142578 20.15625 10.57421875 C17.89855081 10.81727448 17.89855081 10.81727448 16.3972168 12.55102539 C14.5105981 15.85780018 14.52208948 18.89947447 14.48828125 22.609375 C14.47033005 23.33618469 14.45237885 24.06299438 14.43388367 24.81182861 C14.37986759 27.12449407 14.3459144 29.43695421 14.3125 31.75 C14.27931907 33.3216431 14.24482868 34.89325914 14.20898438 36.46484375 C14.12414672 40.30974746 14.05729494 44.15459122 14 48 C9.38 48 4.76 48 0 48 C0 32.16 0 16.32 0 0 Z " fill="#2B2728" transform="translate(277,43)"/>
<path d="M0 0 C1.13308594 -0.0299707 1.13308594 -0.0299707 2.2890625 -0.06054688 C9.04757115 -0.0547406 14.15158083 1.94141142 19.2421875 6.40234375 C19.78101563 7.05332031 20.31984375 7.70429687 20.875 8.375 C21.70644531 9.34759766 21.70644531 9.34759766 22.5546875 10.33984375 C26.85474788 16.5807422 26.71292028 23.09963763 26 30.4375 C24.34746299 36.26397068 21.41157104 42.3960934 16.07421875 45.58984375 C7.47404637 50.00784821 -1.5155384 50.83908936 -11 48.7890625 C-18.36129749 46.16323382 -21.95100522 41.8524913 -25.875 35.3125 C-28.31880405 28.86842145 -27.9824305 20.57833446 -25.9375 14.0625 C-23.34182999 8.32534153 -19.10634565 4.17950177 -13.32421875 1.765625 C-8.85664835 0.19906094 -4.70249745 -0.04413607 0 0 Z " fill="#282425" transform="translate(247,42.5625)"/>
<path d="M0 0 C1.28293945 -0.01063477 1.28293945 -0.01063477 2.59179688 -0.02148438 C8.63050123 0.03839599 14.93796625 0.60451777 19.62451172 4.85375977 C24.03526489 9.93231067 24.20314992 14.17491649 24.16015625 20.60546875 C24.1587413 21.40028152 24.15732635 22.1950943 24.15586853 23.01399231 C24.15027378 25.55103325 24.13772228 28.08798575 24.125 30.625 C24.11998432 32.34570185 24.11542153 34.06640508 24.11132812 35.78710938 C24.10030607 40.0039403 24.08304506 44.22070516 24.0625 48.4375 C19.7725 48.4375 15.4825 48.4375 11.0625 48.4375 C10.7325 47.4475 10.4025 46.4575 10.0625 45.4375 C9.34900391 45.870625 9.34900391 45.870625 8.62109375 46.3125 C1.48413117 50.09785032 -5.99042468 50.62650137 -13.9375 49.4375 C-18.21366422 47.00683823 -21.1194606 45.0836007 -22.9375 40.4375 C-23.65759773 36.1605559 -23.85435261 32.30246156 -21.90625 28.33984375 C-15.11626082 19.45627457 -2.20236488 19.2133846 8.0625 17.4375 C8.3925 15.4575 8.7225 13.4775 9.0625 11.4375 C6.16691295 10.61961209 3.50785913 10.24857328 0.5 10.1875 C-0.26441406 10.16171875 -1.02882812 10.1359375 -1.81640625 10.109375 C-4.49326707 10.52347502 -5.3050402 11.3138137 -6.9375 13.4375 C-7.2675 14.4275 -7.5975 15.4175 -7.9375 16.4375 C-12.2275 16.4375 -16.5175 16.4375 -20.9375 16.4375 C-20.9375 10.19881024 -20.77851524 8.96792823 -16.9375 4.4375 C-11.2280486 0.3834952 -6.906877 -0.16062505 0 0 Z " fill="#2A2627" transform="translate(144.9375,42.5625)"/>
<path d="M0 0 C5.22188723 4.17094137 8.20616907 8.94961652 8.98828125 15.67578125 C8.98828125 18.64578125 8.98828125 21.61578125 8.98828125 24.67578125 C-2.56171875 24.67578125 -14.11171875 24.67578125 -26.01171875 24.67578125 C-24.65943798 31.13017085 -24.65943798 31.13017085 -22.44921875 33.61328125 C-18.73187923 35.23366002 -14.9813005 35.52592776 -11.01171875 34.67578125 C-10.2434375 34.01191406 -9.47515625 33.34804687 -8.68359375 32.6640625 C-5.17764073 30.05510038 -3.01284335 30.26452426 1.30078125 30.42578125 C2.55503906 30.461875 3.80929687 30.49796875 5.1015625 30.53515625 C6.05417969 30.5815625 7.00679688 30.62796875 7.98828125 30.67578125 C6.86542367 34.6030441 5.99518541 37.25366504 2.80078125 39.86328125 C2.25035156 40.33121094 1.69992187 40.79914063 1.1328125 41.28125 C-4.3590065 44.85243285 -9.45491915 46.21205682 -15.94921875 46.11328125 C-17.00471924 46.10083374 -17.00471924 46.10083374 -18.08154297 46.08813477 C-25.63876757 45.84195112 -30.11086004 43.89037141 -35.32421875 38.55078125 C-40.29653608 32.18296342 -41.68751529 24.35445429 -41.41796875 16.4140625 C-40.42286178 9.70665881 -37.41337144 4.41558195 -32.13671875 0.17578125 C-22.52046023 -6.17525516 -9.70109534 -6.38576955 0 0 Z " fill="#2B2728" transform="translate(452.01171875,46.32421875)"/>
<path d="M0 0 C4.29 0 8.58 0 13 0 C13 5.94 13 11.88 13 18 C22.57 18 32.14 18 42 18 C42 20.97 42 23.94 42 27 C32.43 27 22.86 27 13 27 C13.103125 30.526875 13.20625 34.05375 13.3125 37.6875 C13.33739502 38.79053467 13.36229004 39.89356934 13.38793945 41.0300293 C13.51969119 48.08119195 13.51969119 48.08119195 17 54 C18.92529949 54.74601562 18.92529949 54.74601562 21 54.5625 C22.0209375 54.56443359 22.0209375 54.56443359 23.0625 54.56640625 C25.11429963 54.11681473 25.11429963 54.11681473 26.70703125 52.48046875 C28.52224876 48.99810283 28.56860455 45.59541847 28.6875 41.75 C28.72166016 41.00492188 28.75582031 40.25984375 28.79101562 39.4921875 C28.87314054 37.66197508 28.93825653 35.83101331 29 34 C33.29 34 37.58 34 42 34 C42.10901505 36.83439137 42.18777904 39.66450203 42.25 42.5 C42.30027344 43.68722656 42.30027344 43.68722656 42.3515625 44.8984375 C42.44803216 50.78308702 41.28036882 55.07725888 38 60 C32.87551986 65.12448014 27.21339321 66.29606466 20.125 66.375 C14.11055988 66.26092211 9.74418806 65.79189219 5 62 C-0.66021763 55.78223059 -0.67089289 49.47237525 -0.48828125 41.40625 C-0.47766914 39.62534973 -0.47766914 39.62534973 -0.46684265 37.80847168 C-0.43898587 34.03832429 -0.37625855 30.26969408 -0.3125 26.5 C-0.2874061 23.93491737 -0.26459485 21.36981132 -0.24414062 18.8046875 C-0.18918692 12.535879 -0.10297027 6.26819622 0 0 Z " fill="#282425" transform="translate(174,26)"/>
<path d="M0 0 C0 3.96 0 7.92 0 12 C-2.44140625 12.09765625 -4.8828125 12.1953125 -7.32421875 12.29296875 C-11.0904166 13.28812468 -12.54368493 15.00680752 -15 18 C-15.77326169 21.36687898 -15.77326169 21.36687898 -15.70703125 25.05078125 C-15.72215256 25.70958786 -15.73727386 26.36839447 -15.75285339 27.04716492 C-15.79558566 29.135962 -15.80455265 31.2233102 -15.8125 33.3125 C-15.83565614 34.73506417 -15.86102383 36.15759417 -15.88867188 37.58007812 C-15.9555202 41.05416509 -15.97661586 44.5242667 -16 48 C-20.62 48 -25.24 48 -30 48 C-30 32.49 -30 16.98 -30 1 C-25.71 1 -21.42 1 -17 1 C-16.67 1.99 -16.34 2.98 -16 4 C-15.21625 3.34 -14.4325 2.68 -13.625 2 C-9.3089793 -0.94651413 -5.06071112 -0.27355195 0 0 Z " fill="#282425" transform="translate(495,43)"/>
<path d="M0 0 C5.48960763 4.43776675 8.79641434 10.04212864 10 17 C10 19.31 10 21.62 10 24 C4.39 24 -1.22 24 -7 24 C-7.33 21.36 -7.66 18.72 -8 16 C-9.75209236 13.26319994 -9.75209236 13.26319994 -13 12 C-19.67802256 11.29795167 -19.67802256 11.29795167 -26 13 C-32.18035883 13.44948064 -32.18035883 13.44948064 -34.9375 11.9375 C-36.65989792 8.79665674 -36.49148241 6.50181214 -36 3 C-27.37977394 -7.0105851 -10.55962921 -5.82091362 0 0 Z " fill="#2A241F" transform="translate(76,28)"/>
<path d="M0 0 C3.85544798 1.99657127 5.59805092 3.39707638 8 7 C8.6224169 12.27416424 9.23807534 18.24269277 7.01953125 23.18359375 C3.52137562 27.49977961 0.48814288 28.83198387 -4.875 29.4375 C-9.70549894 29.32034238 -11.71843269 27.43783242 -15 24 C-18.07996296 19.12690792 -17.61645031 13.55547994 -17 8 C-13.91777883 0.0439217 -7.67658642 -0.9909124 0 0 Z " fill="#F8F7F7" transform="translate(251,53)"/>
<path d="M0 0 C3.73050955 1.65800424 5.8936545 3.52304658 8 7 C8.85589519 13.49473412 9.11661042 20.60582083 5 26 C2.12721821 28.39398482 0.27332022 28.96024433 -3.4375 29.5 C-8.19401989 28.83241826 -9.63057529 27.36942471 -13 24 C-15.98602852 19.52095721 -15.47680061 15.2521421 -15 10 C-14.13291142 6.48101275 -12.71314132 3.81879189 -10.3125 1.0625 C-6.89297252 -0.50863425 -3.65664057 -0.5390267 0 0 Z " fill="#F8F8F8" transform="translate(385,53)"/>
<path d="M0 0 C3.75212276 2.01502889 5.63644095 3.45466142 8 7 C8.30078125 10.1796875 8.30078125 10.1796875 8.3125 13.875 C8.32925781 15.08929688 8.34601562 16.30359375 8.36328125 17.5546875 C7.97181015 21.26734886 7.30717996 23.09389071 5 26 C1.00934096 28.68492193 -3.35151445 28.82178584 -8 28 C-11.36514596 25.42244139 -13.39300876 22.88765566 -15 19 C-15.6949651 13.65038492 -15.65184874 9.28121994 -13.1875 4.4375 C-9.22977137 0.02745952 -5.75338084 -0.90270437 0 0 Z " fill="#F9F9F9" transform="translate(526,53)"/>
<path d="M0 0 C0.556875 0.7425 1.11375 1.485 1.6875 2.25 C6.20564795 7.6229327 10.43838823 10.53177857 17.51171875 11.2578125 C23.53978701 11.51003293 27.86849745 10.66342267 33.22265625 7.875 C35 7 35 7 37 7 C37 6.34 37 5.68 37 5 C37.66 5 38.32 5 39 5 C39 6.65 39 8.3 39 10 C43.95 10 48.9 10 54 10 C51.82285416 15.44286461 51.06538882 16.4568548 46 19 C43.02123453 19.5542259 40.11793057 19.58507895 37.09375 19.56640625 C35.82936096 19.57570412 35.82936096 19.57570412 34.53942871 19.58518982 C32.76441599 19.59226629 30.9893366 19.58915203 29.21435547 19.57641602 C26.50754113 19.56253866 23.80417969 19.59666289 21.09765625 19.63476562 C19.36718666 19.63571685 17.63671277 19.63385781 15.90625 19.62890625 C15.10296265 19.64216446 14.29967529 19.65542267 13.4720459 19.66908264 C7.64134672 19.57305404 5.06749241 18.19707834 1 14 C-0.38226016 11.23547967 -0.09525387 8.9538637 -0.0625 5.875 C-0.05347656 4.77929688 -0.04445313 3.68359375 -0.03515625 2.5546875 C-0.02355469 1.71164063 -0.01195313 0.86859375 0 0 Z " fill="#32291E" transform="translate(32,75)"/>
<path d="M0 0 C0.45675183 5.70939788 -0.37894444 8.55127459 -4 13 C-7.25082673 15.16721782 -8.29232153 15.27221018 -12.0625 15.25 C-12.94035156 15.25515625 -13.81820312 15.2603125 -14.72265625 15.265625 C-17 15 -17 15 -19 13 C-19.4375 10.125 -19.4375 10.125 -19 7 C-14.94804901 1.93506127 -6.34538132 0 0 0 Z " fill="#F2F2F2" transform="translate(155,68)"/>
<path d="M0 0 C1.9375 1.0625 1.9375 1.0625 3 3 C3.75471698 9.79245283 3.75471698 9.79245283 1.4375 13.5 C-1.94888329 15.58392818 -4.09385318 15.55802097 -8 15 C-10.4375 13.5 -10.4375 13.5 -12 11 C-12.61014545 8.1910285 -12.65360928 5.80363979 -12 3 C-8.3655827 -1.51548816 -5.40521016 -1.50144727 0 0 Z " fill="#2A241F" transform="translate(63,60)"/>
<path d="M0 0 C1.859375 0.18359375 1.859375 0.18359375 4 1 C5.77311816 4.20146335 6.77218542 7.53580886 8 11 C9.65 7.7 11.3 4.4 13 1 C16.28220895 2.64110448 16.74570789 5.69322988 18 9 C18 9.99 18 10.98 18 12 C18.66 12 19.32 12 20 12 C20.13277344 11.37351562 20.26554687 10.74703125 20.40234375 10.1015625 C20.57894531 9.28429687 20.75554687 8.46703125 20.9375 7.625 C21.19853516 6.40683594 21.19853516 6.40683594 21.46484375 5.1640625 C22 3 22 3 23 1 C23.99 1 24.98 1 26 1 C25.28739906 5.28379643 23.93078264 9.25093853 22.4375 13.3125 C22.20353516 13.95767578 21.96957031 14.60285156 21.72851562 15.26757812 C21.15552993 16.84621219 20.57820536 18.42327026 20 20 C17.1673866 18.5836933 16.98292167 16.85502707 15.875 13.9375 C15.52179688 13.01839844 15.16859375 12.09929687 14.8046875 11.15234375 C14.53914063 10.44207031 14.27359375 9.73179688 14 9 C12.03044748 11.49366313 10.50245416 13.80344684 9.3125 16.75 C8.879375 17.8225 8.44625 18.895 8 20 C4.63528684 18.31764342 4.10108468 14.49819949 2.875 11.125 C2.59785156 10.39152344 2.32070313 9.65804687 2.03515625 8.90234375 C0.89446374 5.81741671 0 3.31479633 0 0 Z " fill="#413D3E" transform="translate(335,104)"/>
<path d="M0 0 C3.6578218 2.03993908 5.66946174 3.50419262 8 7 C8 8.32 8 9.64 8 11 C1.07 11 -5.86 11 -13 11 C-13 6 -13 6 -11.6796875 4.19921875 C-7.79830426 0.94793019 -5.27764642 -1.12290349 0 0 Z " fill="#ECECEC" transform="translate(439,52)"/>
<path d="M0 0 C1.9375 1.125 1.9375 1.125 3 3 C3.53852618 6.61581862 3.42236225 8.34111489 1.4375 11.4375 C-1 13 -1 13 -4.625 12.9375 C-8 12 -8 12 -10 9 C-10.32162076 5.9124407 -10.48724515 3.85984439 -8.9375 1.125 C-5.8930714 -0.64273274 -3.4368988 -0.36823916 0 0 Z " fill="#373434" transform="translate(433,112)"/>
<path d="M0 0 C0.99 0 1.98 0 3 0 C3.33 3.3 3.66 6.6 4 10 C4.763125 9.773125 5.52625 9.54625 6.3125 9.3125 C9 9 9 9 10.65625 10.15625 C12.44908113 12.61618108 12.30478421 14.17720534 12.1875 17.1875 C12.16042969 18.08855469 12.13335937 18.98960938 12.10546875 19.91796875 C12.07066406 20.60503906 12.03585937 21.29210937 12 22 C11.01 22 10.02 22 9 22 C8.67 19.03 8.34 16.06 8 13 C6.68 13 5.36 13 4 13 C3.67 15.97 3.34 18.94 3 22 C2.01 22 1.02 22 0 22 C0 14.74 0 7.48 0 0 Z " fill="#3C3839" transform="translate(365,103)"/>
<path d="M0 0 C2.88575819 0.39803561 3.82189513 0.79009069 5.75 3.0625 C6.1625 3.701875 6.575 4.34125 7 5 C7.433125 4.175 7.86625 3.35 8.3125 2.5 C8.869375 1.675 9.42625 0.85 10 0 C10.99 0 11.98 0 13 0 C10.9661126 6.61013404 8.12173124 12.84015532 5 19 C4.01 19 3.02 19 2 19 C2.10699219 18.27554688 2.21398437 17.55109375 2.32421875 16.8046875 C3.05831372 10.88456674 3.3419804 7.21348942 0 2 C0 1.34 0 0.68 0 0 Z " fill="#494647" transform="translate(381,112)"/>
<path d="M0 0 C1.32 0.33 2.64 0.66 4 1 C4.33 0.67 4.66 0.34 5 0 C7.4375 -0.1875 7.4375 -0.1875 10 0 C12 2 12 2 12.1953125 4.6015625 C12.17210937 5.59929687 12.14890625 6.59703125 12.125 7.625 C12.10695313 8.62789062 12.08890625 9.63078125 12.0703125 10.6640625 C12.03550781 11.82035156 12.03550781 11.82035156 12 13 C11.01 13 10.02 13 9 13 C8.67 10.03 8.34 7.06 8 4 C6.68 4 5.36 4 4 4 C3.67 6.97 3.34 9.94 3 13 C2.01 13 1.02 13 0 13 C0 8.71 0 4.42 0 0 Z " fill="#403D3E" transform="translate(406,112)"/>
<path d="M0 0 C1.859375 0.18359375 1.859375 0.18359375 4 1 C5.265625 3.28515625 5.265625 3.28515625 6.25 6.0625 C6.75273437 7.44115234 6.75273437 7.44115234 7.265625 8.84765625 C7.50796875 9.55792969 7.7503125 10.26820312 8 11 C8.99 10.67 9.98 10.34 11 10 C10.51178906 14.29625631 9.70705488 16.6615409 7 20 C3.75956186 13.3830748 1.30960645 7.26236302 0 0 Z " fill="#3D3A3B" transform="translate(335,104)"/>
<path d="M0 0 C0.99 0 1.98 0 3 0 C3 1.98 3 3.96 3 6 C3.99 6 4.98 6 6 6 C6 6.99 6 7.98 6 9 C5.01 9 4.02 9 3 9 C3 11.31 3 13.62 3 16 C3.99 16 4.98 16 6 16 C6 16.99 6 17.98 6 19 C4.33388095 19.042721 2.66617115 19.04063832 1 19 C0 18 0 18 -0.09765625 15.93359375 C-0.08025391 14.69802734 -0.08025391 14.69802734 -0.0625 13.4375 C-0.05347656 12.61121094 -0.04445313 11.78492187 -0.03515625 10.93359375 C-0.02355469 10.29550781 -0.01195312 9.65742187 0 9 C-0.66 9 -1.32 9 -2 9 C-2 8.01 -2 7.02 -2 6 C-1.34 6 -0.68 6 0 6 C0 4.02 0 2.04 0 0 Z " fill="#403D3E" transform="translate(443,106)"/>
<path d="M0 0 C6.6 0.6 6.6 0.6 9 3 C9.55743243 8.23986486 9.55743243 8.23986486 7.625 10.875 C6 12 6 12 4 12 C4 12.99 4 13.98 4 15 C3.01 15 2.02 15 1 15 C1 13.02 1 11.04 1 9 C2.32 8.67 3.64 8.34 5 8 C5 6.68 5 5.36 5 4 C2.36 4.33 -0.28 4.66 -3 5 C-1.125 1.125 -1.125 1.125 0 0 Z " fill="#403D3E" transform="translate(456,104)"/>
<path d="M0 0 C4.29 0 8.58 0 13 0 C11.68 0.99 10.36 1.98 9 3 C7.7822853 4.00962421 6.57358506 5.03023841 5.375 6.0625 C4.48941406 6.82240234 4.48941406 6.82240234 3.5859375 7.59765625 C2.35156727 8.6891314 1.16511542 9.83488458 0 11 C0 7.37 0 3.74 0 0 Z " fill="#2E261E" transform="translate(32,52)"/>
<path d="M0 0 C2.5 0.125 2.5 0.125 3.5 1.125 C3.625 3.625 3.625 3.625 3.5 6.125 C2.5 7.125 2.5 7.125 0 7.25 C-2.5 7.125 -2.5 7.125 -3.5 6.125 C-3.625 3.625 -3.625 3.625 -3.5 1.125 C-2.5 0.125 -2.5 0.125 0 0 Z " fill="#EDEDED" transform="translate(429.5,114.875)"/>
<path d="M0 0 C0.99 0 1.98 0 3 0 C2.21824485 4.84688192 0.60155722 9.3766367 -1 14 C-2.32 13.67 -3.64 13.34 -5 13 C-5 12.34 -5 11.68 -5 11 C-4.34 11 -3.68 11 -3 11 C-2.86722656 10.37351562 -2.73445313 9.74703125 -2.59765625 9.1015625 C-2.33275391 7.87566406 -2.33275391 7.87566406 -2.0625 6.625 C-1.88847656 5.81289062 -1.71445312 5.00078125 -1.53515625 4.1640625 C-1 2 -1 2 0 0 Z " fill="#444142" transform="translate(358,105)"/>
<path d="M0 0 C0.33 0 0.66 0 1 0 C1 2.31 1 4.62 1 7 C1.99 7 2.98 7 4 7 C4 7.99 4 8.98 4 10 C2.35 10 0.7 10 -1 10 C-2.15837626 5.94568308 -1.83691257 3.78187881 0 0 Z " fill="#433F40" transform="translate(445,115)"/>
<path d="M0 0 C0.33 0 0.66 0 1 0 C1.32523926 3.57763189 1.42956587 5.39542581 -0.6875 8.375 C-3.38790237 10.27258004 -4.77060081 10.35882213 -8 10 C-7.67 9.01 -7.34 8.02 -7 7 C-6.360625 6.855625 -5.72125 6.71125 -5.0625 6.5625 C-2.82079394 6.20413209 -2.82079394 6.20413209 -1.8125 4.0625 C-1.544375 3.381875 -1.27625 2.70125 -1 2 C-0.67 1.34 -0.34 0.68 0 0 Z " fill="#474445" transform="translate(435,115)"/>
<path d="M0 0 C0.66 0.99 1.32 1.98 2 3 C1.34 4.32 0.68 5.64 0 7 C-0.66 7 -1.32 7 -2 7 C-2 7.99 -2 8.98 -2 10 C-2.99 10 -3.98 10 -5 10 C-5 8.02 -5 6.04 -5 4 C-4.0409375 3.8453125 -4.0409375 3.8453125 -3.0625 3.6875 C-2.381875 3.460625 -1.70125 3.23375 -1 3 C-0.67 2.01 -0.34 1.02 0 0 Z " fill="#524F50" transform="translate(462,109)"/>
<path d="M0 0 C0.33 0.99 0.66 1.98 1 3 C1.99 2.67 2.98 2.34 4 2 C2.125 6.75 2.125 6.75 1 9 C0.01 9 -0.98 9 -2 9 C-1.34 6.03 -0.68 3.06 0 0 Z " fill="#4D4A4B" transform="translate(385,122)"/>
<path d="M0 0 C0.66 0 1.32 0 2 0 C2 0.99 2 1.98 2 3 C2.99 2.67 3.98 2.34 5 2 C4.67 4.31 4.34 6.62 4 9 C1.18167487 7.59083743 0.97406539 5.92219617 0 3 C0 2.01 0 1.02 0 0 Z " fill="#2C2829" transform="translate(351,115)"/>
<path d="M0 0 C0.99 0 1.98 0 3 0 C1.25 5.75 1.25 5.75 -1 8 C-1.66 7.67 -2.32 7.34 -3 7 C-1.125 1.125 -1.125 1.125 0 0 Z " fill="#4B4848" transform="translate(391,112)"/>
<path d="M0 0 C1.2065625 0.0309375 1.2065625 0.0309375 2.4375 0.0625 C2.4375 1.0525 2.4375 2.0425 2.4375 3.0625 C1.81875 3.145 1.2 3.2275 0.5625 3.3125 C-1.74687567 3.87508459 -1.74687567 3.87508459 -2.8125 6.125 C-3.06 6.764375 -3.3075 7.40375 -3.5625 8.0625 C-3.60491723 5.72955225 -3.60342937 3.39547433 -3.5625 1.0625 C-2.5625 0.0625 -2.5625 0.0625 0 0 Z " fill="#373435" transform="translate(446.5625,111.9375)"/>
<path d="M0 0 C1.32 0.33 2.64 0.66 4 1 C4.66 3.31 5.32 5.62 6 8 C5.34 7.67 4.68 7.34 4 7 C4 6.01 4 5.02 4 4 C3.34 4 2.68 4 2 4 C1.67 4.66 1.34 5.32 1 6 C0.67 4.02 0.34 2.04 0 0 Z " fill="#676465" transform="translate(335,104)"/>
<path d="M0 0 C-0.33 1.65 -0.66 3.3 -1 5 C-1.99 5.33 -2.98 5.66 -4 6 C-4.33 4.35 -4.66 2.7 -5 1 C-2 0 -2 0 0 0 Z " fill="#282425" transform="translate(390,119)"/>
<path d="M0 0 C1.32 0 2.64 0 4 0 C3.67 1.65 3.34 3.3 3 5 C2.01 5 1.02 5 0 5 C0 3.35 0 1.7 0 0 Z " fill="#454142" transform="translate(470,105)"/>
<path d="M0 0 C2 3 2 3 2 6 C0.68 6 -0.64 6 -2 6 C-1.125 1.125 -1.125 1.125 0 0 Z " fill="#434041" transform="translate(328,105)"/>
</svg>
